<svg width="24" height="24" viewBox="0 0 24 24" fill="none" xmlns="http://www.w3.org/2000/svg">
<path fill-rule="evenodd" clip-rule="evenodd" d="M11.1895 18.3491C8.05639 21.4401 4.76324 23.085 4.76324 23.085C4.53513 23.1985 4.25799 23.1225 4.11942 22.9084C3.98135 22.6943 4.02637 22.4106 4.22397 22.2495C5.4766 21.2285 8.65419 16.8834 9.8798 13.6778C10.1299 13.024 10.298 12.4206 10.34 11.9079C10.3731 11.5087 10.341 11.1745 10.1554 10.9499C9.97285 10.7293 9.72673 10.6838 9.45359 10.7343C9.19496 10.7818 8.91782 10.9034 8.63068 11.069C6.69971 12.18 4.43658 15.1855 4.43658 15.1855C4.28701 15.3831 4.01437 15.4411 3.79676 15.3216C3.57916 15.202 3.48261 14.9409 3.56915 14.7083C5.6672 9.091 8.21497 6.98143 10.378 6.42615C12.6657 5.83885 14.6057 6.94691 15.4376 7.77582C16.207 8.5422 16.7948 8.78684 17.283 8.66228C17.7222 8.55023 18.0329 8.16151 18.271 7.76181C18.6887 7.05946 18.8643 6.27058 18.8643 6.27058C18.9163 6.03647 19.1269 5.87187 19.367 5.87888C19.6067 5.88588 19.8078 6.06248 19.8463 6.2991C20.3986 9.71031 19.6842 11.2511 18.7697 11.8979C18.1649 12.3261 17.4371 12.4061 16.7773 12.3296C16.327 12.2776 15.9133 12.154 15.6102 12.042C15.2325 12.9409 14.7778 13.7888 14.2705 14.5842C15.1764 14.8729 15.9298 15.3006 16.4601 15.9639C17.4131 17.157 17.6787 19.1835 16.5666 22.7848C16.4996 23.0014 16.2955 23.146 16.0684 23.137C15.8418 23.128 15.6497 22.9674 15.6007 22.7463C15.3425 21.5897 15.0879 20.6718 14.7657 19.9669C14.4816 19.3441 14.1519 18.8999 13.6987 18.6277C13.0954 18.2651 12.298 18.2075 11.1895 18.3491ZM13.0939 14.5602C13.7928 13.5372 14.4061 12.4171 14.8678 11.2035C14.9188 11.07 15.0244 10.9649 15.1579 10.9139C15.2915 10.8634 15.4401 10.8719 15.5671 10.9379C15.5671 10.9379 16.1709 11.2521 16.8923 11.3361C17.321 11.3856 17.7988 11.3591 18.192 11.0815C18.5271 10.8444 18.7853 10.4292 18.9278 9.77084C19.0099 9.39265 19.0519 8.9434 19.0454 8.41063C18.6772 8.98091 18.1689 9.46868 17.5306 9.63176C16.8093 9.81585 15.8683 9.61675 14.7312 8.48418C14.0569 7.81235 12.4821 6.9194 10.6272 7.39514C9.0839 7.79134 7.39356 9.10448 5.81377 12.0985C6.54063 11.3671 7.36204 10.6448 8.13143 10.2021C9.23898 9.56423 10.261 9.50718 10.9268 10.3126C11.1975 10.6397 11.341 11.0825 11.35 11.6208C11.3615 12.2856 11.1644 13.1195 10.8143 14.035C10.0219 16.1075 8.44559 18.6287 7.04289 20.5127C8.09991 19.7703 9.34703 18.7883 10.5626 17.5782C10.5777 17.5577 10.5942 17.5387 10.6122 17.5207C11.4716 16.6603 12.3145 15.6858 13.0619 14.6012C13.0719 14.5867 13.0824 14.5732 13.0939 14.5602ZM13.6857 15.4542C13.2215 16.1025 12.7262 16.7123 12.2155 17.2826C13.0354 17.2901 13.6832 17.4512 14.214 17.7698C15.0524 18.2736 15.6192 19.2015 16.0889 20.6733C16.5086 18.6578 16.327 17.4001 15.6782 16.5882C15.212 16.0044 14.5131 15.6778 13.6857 15.4542Z" fill="#9DB2CE"/>
<path fill-rule="evenodd" clip-rule="evenodd" d="M14.5397 1.11572C15.9198 1.11572 17.0409 2.23608 17.0409 3.61615C17.0409 4.99622 15.9198 6.11728 14.5397 6.11728C13.1597 6.11728 12.0393 4.99622 12.0393 3.61615C12.0393 2.23608 13.1597 1.11572 14.5397 1.11572ZM14.5397 2.11604C13.7118 2.11604 13.0396 2.78825 13.0396 3.61615C13.0396 4.44404 13.7118 5.11697 14.5397 5.11697C15.3676 5.11697 16.0406 4.44404 16.0406 3.61615C16.0406 2.78825 15.3676 2.11604 14.5397 2.11604Z" fill="#9DB2CE"/>
</svg>
