<svg width="24" height="24" viewBox="0 0 24 24" fill="none" xmlns="http://www.w3.org/2000/svg">
<path fill-rule="evenodd" clip-rule="evenodd" d="M11.148 18.214C8.01654 21.3035 4.72503 22.9475 4.72503 22.9475C4.49703 23.061 4.22003 22.985 4.08153 22.771C3.94353 22.557 3.98853 22.2735 4.18603 22.1125C5.43803 21.092 8.61403 16.749 9.83903 13.545C10.089 12.8915 10.257 12.2885 10.299 11.776C10.332 11.377 10.3 11.043 10.1145 10.8185C9.93204 10.598 9.68604 10.5525 9.41304 10.603C9.15454 10.6505 8.87753 10.772 8.59053 10.9375C6.66053 12.048 4.39853 15.052 4.39853 15.052C4.24903 15.2495 3.97654 15.3075 3.75904 15.188C3.54154 15.0685 3.44504 14.8075 3.53154 14.575C5.62854 8.96051 8.17503 6.852 10.337 6.297C12.6235 5.71 14.5625 6.8175 15.394 7.646C16.163 8.412 16.7505 8.65651 17.2385 8.53201C17.6775 8.42001 17.988 8.03149 18.226 7.63199C18.6435 6.92999 18.819 6.14151 18.819 6.14151C18.871 5.90751 19.0815 5.743 19.3215 5.75C19.561 5.757 19.762 5.93351 19.8005 6.17001C20.3525 9.57951 19.6385 11.1195 18.7245 11.766C18.12 12.194 17.3925 12.274 16.733 12.1975C16.283 12.1455 15.8695 12.022 15.5665 11.91C15.189 12.8085 14.7345 13.656 14.2275 14.451C15.133 14.7395 15.886 15.167 16.416 15.83C17.3685 17.0225 17.634 19.048 16.5225 22.6475C16.4555 22.864 16.2515 23.0085 16.0245 22.9995C15.798 22.9905 15.606 22.83 15.557 22.609C15.299 21.453 15.0445 20.5355 14.7225 19.831C14.4385 19.2085 14.109 18.7645 13.656 18.4925C13.053 18.13 12.256 18.0725 11.148 18.214ZM13.643 15.3205C13.179 15.9685 12.684 16.578 12.1735 17.148C12.993 17.1555 13.6405 17.3165 14.171 17.635C15.009 18.1385 15.5755 19.066 16.045 20.537C16.4645 18.5225 16.283 17.2655 15.6345 16.454C15.1685 15.8705 14.47 15.544 13.643 15.3205ZM14.5 1C15.88 1 17 2.12 17 3.5C17 4.88 15.88 6 14.5 6C13.12 6 12 4.88 12 3.5C12 2.12 13.12 1 14.5 1Z" fill="#00AAFF"/>
</svg>
