<svg width="29" height="24" viewBox="0 0 29 24" fill="none" xmlns="http://www.w3.org/2000/svg">
<path d="M25.595 3H21.2643V2.25C21.2643 2.05109 21.1731 1.86032 21.0106 1.71967C20.8482 1.57902 20.6279 1.5 20.3982 1.5C20.1685 1.5 19.9482 1.57902 19.7857 1.71967C19.6233 1.86032 19.5321 2.05109 19.5321 2.25V3H9.1385V2.25C9.1385 2.05109 9.04725 1.86032 8.88482 1.71967C8.72239 1.57902 8.50209 1.5 8.27238 1.5C8.04266 1.5 7.82236 1.57902 7.65993 1.71967C7.4975 1.86032 7.40625 2.05109 7.40625 2.25V3H3.0756C2.8461 3.00059 2.6262 3.0798 2.46391 3.22033C2.30163 3.36085 2.21016 3.55127 2.20947 3.75V9.75H26.4611V3.75C26.4604 3.55127 26.3689 3.36085 26.2066 3.22033C26.0444 3.0798 25.8245 3.00059 25.595 3ZM8.27238 9C7.65981 9.00087 7.06665 8.81401 6.59794 8.47249C6.12922 8.13098 5.8152 7.65686 5.71147 7.13409C5.60773 6.61132 5.72099 6.07362 6.03118 5.61622C6.34137 5.15882 6.82848 4.81123 7.40625 4.635V6C7.40639 6.13224 7.44832 6.26193 7.5275 6.375C7.44831 6.48807 7.40638 6.61776 7.40625 6.75C7.40625 6.94891 7.4975 7.13968 7.65993 7.28033C7.82236 7.42098 8.04266 7.5 8.27238 7.5C8.50209 7.5 8.72239 7.42098 8.88482 7.28033C9.04725 7.13968 9.1385 6.94891 9.1385 6.75C9.13837 6.61776 9.09644 6.48807 9.01725 6.375C9.09643 6.26193 9.13836 6.13224 9.1385 6V4.635C9.71627 4.81123 10.2034 5.15882 10.5136 5.61622C10.8238 6.07362 10.937 6.61132 10.8333 7.13409C10.7296 7.65686 10.4155 8.13098 9.94681 8.47249C9.4781 8.81401 8.88494 9.00087 8.27238 9ZM20.3982 9C19.7856 9.00087 19.1925 8.81401 18.7237 8.47249C18.255 8.13098 17.941 7.65686 17.8373 7.13409C17.7335 6.61132 17.8468 6.07362 18.157 5.61622C18.4672 5.15882 18.9543 4.81123 19.5321 4.635V6C19.5322 6.13224 19.5741 6.26193 19.6533 6.375C19.5741 6.48807 19.5322 6.61776 19.5321 6.75C19.5321 6.94891 19.6233 7.13968 19.7857 7.28033C19.9482 7.42098 20.1685 7.5 20.3982 7.5C20.6279 7.5 20.8482 7.42098 21.0106 7.28033C21.1731 7.13968 21.2643 6.94891 21.2643 6.75C21.2642 6.61776 21.2222 6.48807 21.1431 6.375C21.2222 6.26193 21.2642 6.13224 21.2643 6V4.635C21.8421 4.81123 22.3292 5.15882 22.6394 5.61622C22.9496 6.07362 23.0628 6.61132 22.9591 7.13409C22.8554 7.65686 22.5413 8.13098 22.0726 8.47249C21.6039 8.81401 21.0107 9.00087 20.3982 9ZM2.20947 11.25H26.4611V18.4464C26.4596 19.5212 25.9659 20.5515 25.0882 21.3114C24.2105 22.0714 23.0206 22.4988 21.7794 22.5H3.0756C2.96185 22.5 2.84921 22.4806 2.74411 22.443C2.63902 22.4053 2.54352 22.35 2.46309 22.2804C2.38266 22.2107 2.31886 22.128 2.27534 22.037C2.23183 21.946 2.20944 21.8485 2.20947 21.75V11.25Z" fill="#00AAFF"/>
</svg>
