<svg width="44" height="44" viewBox="0 0 44 44" fill="none" xmlns="http://www.w3.org/2000/svg">
<path d="M23.8906 37.8125C23.8906 40.3802 18.3114 41.7656 13.0625 41.7656C7.81357 41.7656 2.23438 40.3802 2.23438 37.8125C2.23438 36.0313 4.92064 34.8204 8.31758 34.2449C9.21126 35.4629 10.0944 36.5537 10.8429 37.4308C11.3974 38.0817 12.2065 38.455 13.0625 38.455C13.9185 38.455 14.7276 38.0817 15.2814 37.4311C16.0302 36.5539 16.9134 35.4628 17.8073 34.2448C21.2043 34.8203 23.8906 36.0313 23.8906 37.8125ZM13.0625 19.8341C11.4511 19.8341 10.1406 21.145 10.1406 22.756C10.1406 24.367 11.4511 25.6779 13.0625 25.6779C14.6739 25.6779 15.9844 24.367 15.9844 22.756C15.9844 21.145 14.6739 19.8341 13.0625 19.8341ZM21.8281 22.756C21.8281 27.6457 16.7014 34.1796 14.4972 36.7618C14.1387 37.1824 13.6157 37.4238 13.0625 37.4238C12.5093 37.4238 11.9863 37.1824 11.6278 36.7618C9.42356 34.1796 4.29688 27.6457 4.29688 22.756C4.29688 17.9226 8.22917 13.9903 13.0625 13.9903C17.8958 13.9903 21.8281 17.9226 21.8281 22.756ZM17.0156 22.756C17.0156 20.5763 15.2425 18.8029 13.0625 18.8029C10.8825 18.8029 9.10938 20.5763 9.10938 22.756C9.10938 24.9356 10.8825 26.7091 13.0625 26.7091C15.2425 26.7091 17.0156 24.9356 17.0156 22.756ZM41.7656 9.625C41.7656 13.5016 38.0388 18.5024 35.8172 21.1386C35.4586 21.5646 34.933 21.809 34.375 21.809C33.817 21.809 33.2914 21.5646 32.9328 21.1386C30.7112 18.5024 26.9844 13.5016 26.9844 9.625C26.9844 5.54971 30.2997 2.23438 34.375 2.23438C38.4503 2.23438 41.7656 5.54971 41.7656 9.625ZM37.6406 9.625C37.6406 7.82437 36.1756 6.35938 34.375 6.35938C32.5744 6.35938 31.1094 7.82437 31.1094 9.625C31.1094 11.4256 32.5744 12.8906 34.375 12.8906C36.1756 12.8906 37.6406 11.4256 37.6406 9.625ZM34.375 7.39062C33.143 7.39062 32.1406 8.393 32.1406 9.625C32.1406 10.857 33.143 11.8594 34.375 11.8594C35.607 11.8594 36.6094 10.857 36.6094 9.625C36.6094 8.393 35.607 7.39062 34.375 7.39062ZM34.8906 33.6875V25.4375C34.8906 25.1528 34.6597 24.9219 34.375 24.9219C34.0903 24.9219 33.8594 25.1528 33.8594 25.4375V33.6875C33.8594 35.6778 32.24 37.2969 30.25 37.2969H27.5C27.2153 37.2969 26.9844 37.5278 26.9844 37.8125C26.9844 38.0972 27.2153 38.3281 27.5 38.3281H30.25C32.8087 38.3281 34.8906 36.2465 34.8906 33.6875Z" fill="#030303"/>
</svg>
