<svg width="24" height="24" viewBox="0 0 24 24" fill="none" xmlns="http://www.w3.org/2000/svg">
<path d="M3.80005 1.8C3.24777 1.8 2.80005 2.24772 2.80005 2.8V5.4H17.2V2.8C17.2 2.24772 16.7523 1.8 16.2 1.8H3.80005Z" fill="#00AAFF"/>
<path fill-rule="evenodd" clip-rule="evenodd" d="M17.2 6.2H2.80005V21C2.80005 21.5522 3.24777 22 3.80005 22H16.2C16.7523 22 17.2 21.5522 17.2 21V16.6058L16.1142 17.6917C15.9062 17.8996 15.6582 18.0471 15.3941 18.1322L13.2618 19.2113C11.8828 19.9092 10.4138 18.4402 11.1117 17.0612L12.2459 14.8201C12.2922 14.7052 12.3508 14.5941 12.4216 14.4889C12.5352 14.3066 12.6771 14.151 12.8383 14.0249L17.2 9.66314V6.2ZM5.80005 9.8C5.57913 9.8 5.40005 9.97908 5.40005 10.2C5.40005 10.4209 5.57913 10.6 5.80005 10.6H12.6C12.821 10.6 13 10.4209 13 10.2C13 9.97908 12.821 9.8 12.6 9.8H5.80005ZM5.40005 13.6C5.40005 13.3791 5.57913 13.2 5.80005 13.2H9.80005C10.021 13.2 10.2 13.3791 10.2 13.6C10.2 13.8209 10.021 14 9.80005 14H5.80005C5.57913 14 5.40005 13.8209 5.40005 13.6ZM5.80005 16.8C5.57913 16.8 5.40005 16.9791 5.40005 17.2C5.40005 17.4209 5.57913 17.6 5.80005 17.6H9.00005C9.22097 17.6 9.40005 17.4209 9.40005 17.2C9.40005 16.9791 9.22097 16.8 9.00005 16.8H5.80005Z" fill="#00AAFF"/>
<path d="M13.3877 14.6069C13.2211 14.7734 13.0619 14.9176 12.9775 15.1463L11.8256 17.4225C11.4766 18.112 12.2111 18.8464 12.9006 18.4975L15.0595 17.4049C15.2292 17.319 15.4105 17.2641 15.5485 17.126L20.0907 12.584L17.7506 10.244L13.3877 14.6069Z" fill="#00AAFF"/>
<path d="M20.6921 8.71646L21.6179 9.64222C21.9995 10.0237 22.0087 10.6656 21.6179 11.0564L20.6561 12.0183L18.3162 9.6783L19.278 8.71646C19.2811 8.7134 19.2841 8.71038 19.2872 8.70738C19.6745 8.32978 20.3161 8.3404 20.6921 8.71646Z" fill="#00AAFF"/>
</svg>
