<svg width="24" height="24" viewBox="0 0 24 24" fill="none" xmlns="http://www.w3.org/2000/svg">
<path d="M2.88207 15.5368H1.98247L1.14037 19.7354C1.03294 20.2699 1.63467 20.6172 2.43233 20.6172C3.22999 20.6172 3.83155 20.2703 3.72459 19.7354L2.88207 15.5368Z" fill="#00AAFF"/>
<path d="M3.0936 14.4432C3.0936 14.808 2.79839 15.1056 2.4312 15.1056C2.0664 15.1056 1.7688 14.808 1.7688 14.4432C1.7688 14.076 2.0664 13.7784 2.4312 13.7784C2.79839 13.7784 3.0936 14.076 3.0936 14.4432Z" fill="#00AAFF"/>
<path d="M23.1919 7.28037L12.3131 3.44238C12.0886 3.363 11.9123 3.363 11.6879 3.44238L0.808298 7.28037C0.670252 7.32897 0.600098 7.42826 0.600098 7.57459V8.61413C0.600098 8.76062 0.670254 8.86015 0.808298 8.90873L12.0001 12.8571L23.1919 8.90873C23.3299 8.85975 23.4001 8.76084 23.4001 8.61427V7.57473C23.4001 7.42825 23.3299 7.32897 23.1919 7.28037Z" fill="#00AAFF"/>
<path d="M11.9997 13.7946L11.7056 13.6907L5.02539 11.3339V13.7107C5.02539 17.4085 7.37739 19.0749 11.9996 19.0749C16.6216 19.0749 18.9734 17.4085 18.9734 13.7107V11.3339L12.2936 13.6907L11.9997 13.7946Z" fill="#00AAFF"/>
<path d="M2.87445 10.575L1.98999 10.2631V13.4175H2.87445V10.575Z" fill="#00AAFF"/>
</svg>
