<svg width="21" height="20" viewBox="0 0 21 20" fill="none" xmlns="http://www.w3.org/2000/svg">
<path d="M20.3069 4.46187C20.2214 3.91742 19.9339 3.42016 19.4965 3.06024C19.0591 2.70032 18.5008 2.50156 17.9227 2.5H3.07703C2.49899 2.50156 1.94067 2.70032 1.50328 3.06024C1.06589 3.42016 0.778382 3.91742 0.692871 4.46187L10.4999 10.5056L20.3069 4.46187Z" fill="#875692"/>
<path d="M10.8563 11.7746C10.7502 11.84 10.6264 11.8748 10.5 11.8748C10.3736 11.8748 10.2498 11.84 10.1437 11.7746L0.65625 5.92836V15.194C0.656945 15.8053 0.912227 16.3913 1.36608 16.8236C1.81994 17.2558 2.43531 17.4989 3.07716 17.4996H17.9228C18.5647 17.4989 19.1801 17.2558 19.6339 16.8236C20.0878 16.3913 20.3431 15.8053 20.3438 15.194V5.92773L10.8563 11.7746Z" fill="#875692"/>
</svg>
