<svg width="24" height="24" viewBox="0 0 24 24" fill="none" xmlns="http://www.w3.org/2000/svg">
<path d="M16.725 6.25312C18.4517 6.25312 19.8515 4.85332 19.8515 3.12656C19.8515 1.39981 18.4517 0 16.725 0C14.9982 0 13.5984 1.39981 13.5984 3.12656C13.5984 4.85332 14.9982 6.25312 16.725 6.25312Z" fill="#00AAFF"/>
<path d="M22.7765 16.0969L20.9952 9.10781C20.6765 7.86093 19.5562 6.98906 18.2718 6.98906H15.1781C13.8937 6.98906 12.7687 7.86093 12.4546 9.10781L10.6734 16.0969C10.4109 17.1328 11.1937 18.1406 12.2624 18.1406H13.5937V22.5937C13.5937 23.3719 14.2218 24 14.9999 24H18.4452C19.2234 24 19.8515 23.3719 19.8515 22.5937V18.1406H21.1874C22.2562 18.1406 23.039 17.1328 22.7765 16.0969Z" fill="#00AAFF"/>
<path d="M6.96094 6.99374H3.98438C2.43281 6.99374 1.17188 8.25468 1.17188 9.80624V14.8594C1.17188 15.5578 1.67813 16.1344 2.34375 16.2469V22.5937C2.34375 23.3719 2.97187 24 3.75 24H7.19531C7.97344 24 8.60156 23.3719 8.60156 22.5937V16.2469C9.26719 16.1344 9.77344 15.5578 9.77344 14.8594V9.80624C9.77344 8.24999 8.51719 6.99374 6.96094 6.99374Z" fill="#00AAFF"/>
<path d="M5.47495 6.25312C7.2017 6.25312 8.60151 4.85332 8.60151 3.12656C8.60151 1.39981 7.2017 0 5.47495 0C3.7482 0 2.34839 1.39981 2.34839 3.12656C2.34839 4.85332 3.7482 6.25312 5.47495 6.25312Z" fill="#00AAFF"/>
</svg>
