<svg width="38" height="38" viewBox="0 0 38 38" fill="none" xmlns="http://www.w3.org/2000/svg">
<g clip-path="url(#clip0_1_4071)">
<path d="M34.7904 15.9189C34.7904 14.4638 34.6154 13.0498 34.2888 11.6952C33.3556 9.74995 32.0614 8.00963 30.4941 6.56048C27.6196 4.84326 24.2335 3.90737 20.6381 4.03845C10.7186 4.4001 2.97046 12.7348 3.33198 22.6543C3.385 24.1055 3.61056 25.5094 3.98505 26.8489C4.79423 28.3907 5.83334 29.7937 7.0577 31.011C9.8682 32.8326 13.2187 33.8918 16.8175 33.8918C26.7435 33.8918 34.7904 25.845 34.7904 15.9189ZM25.4941 12.6326C27.7309 12.6326 29.5505 14.3782 29.5505 16.689H27.4965C27.4965 15.5336 26.5982 14.6867 25.4941 14.6867C24.39 14.6867 23.4918 15.5336 23.4918 16.689H21.4377C21.4377 14.3782 23.2573 12.6326 25.4941 12.6326ZM12.5054 12.6326C14.7421 12.6326 16.5618 14.3782 16.5618 16.689H14.5077C14.5077 15.5336 13.6094 14.6867 12.5054 14.6867C11.4013 14.6867 10.503 15.5336 10.503 16.689H8.44895C8.44895 14.3782 10.2686 12.6326 12.5054 12.6326ZM9.07339 24.1203L10.7986 23.0055C12.3679 25.4338 15.0108 27.0802 17.8687 27.4099C21.5353 27.8332 25.199 26.1039 27.2011 23.0055L28.9264 24.1203C26.7459 27.4945 22.9375 29.5268 18.9635 29.5268C18.5213 29.5268 18.0777 29.5017 17.6333 29.4504C14.1721 29.0513 10.9721 27.0588 9.07339 24.1203Z" fill="#FFCE00"/>
<path d="M34.2888 11.6952C34.6154 13.05 34.7904 14.4638 34.7904 15.9189C34.7904 25.845 26.7436 33.8918 16.8175 33.8918C13.2187 33.8918 9.86811 32.8326 7.05762 31.011C10.1233 34.0592 14.3452 35.9459 18.9999 35.9459C28.3439 35.9459 35.9458 28.344 35.9458 19C35.9458 16.3859 35.3504 13.9083 34.2888 11.6952Z" fill="#FFB100"/>
<path d="M20.6385 4.03845C24.2339 3.90737 27.6199 4.84314 30.4945 6.56048C27.4715 3.76513 23.4322 2.05408 19.0001 2.05408C9.6561 2.05408 2.0542 9.65598 2.0542 19C2.0542 21.8306 2.75284 24.501 3.98529 26.8489C3.61081 25.5094 3.38524 24.1055 3.33222 22.6543C2.9707 12.7348 10.7188 4.4001 20.6385 4.03845Z" fill="#FFE454"/>
<path d="M19 0C8.52341 0 0 8.52341 0 19C0 29.4766 8.52341 38 19 38C29.4766 38 38 29.4766 38 19C38 8.52341 29.4767 0 19 0ZM19 35.9459C14.3453 35.9459 10.1234 34.0592 7.0577 31.011C5.83346 29.7937 4.79423 28.3907 3.98505 26.8489C2.75273 24.501 2.05408 21.8307 2.05408 19C2.05408 9.65598 9.65598 2.05408 19 2.05408C23.4321 2.05408 27.4714 3.76513 30.4943 6.56048C32.0615 8.00963 33.3557 9.74996 34.2889 11.6952C35.3506 13.9083 35.9459 16.3859 35.9459 19C35.9459 28.344 28.344 35.9459 19 35.9459Z" fill="black"/>
<path d="M12.5056 14.6867C13.6097 14.6867 14.508 15.5336 14.508 16.689H16.5621C16.5621 14.3782 14.7424 12.6326 12.5056 12.6326C10.2689 12.6326 8.44922 14.3782 8.44922 16.689H10.5033C10.5033 15.5336 11.4017 14.6867 12.5056 14.6867Z" fill="black"/>
<path d="M25.4944 14.6867C26.5985 14.6867 27.4968 15.5336 27.4968 16.689H29.5508C29.5508 14.3782 27.7312 12.6326 25.4944 12.6326C23.2576 12.6326 21.438 14.3782 21.438 16.689H23.4921C23.4921 15.5336 24.3903 14.6867 25.4944 14.6867Z" fill="black"/>
<path d="M18.9639 29.5268C22.9378 29.5268 26.7462 27.4945 28.9267 24.1203L27.2014 23.0055C25.1992 26.1039 21.5355 27.8332 17.8691 27.4099C15.0111 27.0804 12.3681 25.4338 10.7989 23.0055L9.07373 24.1203C10.9725 27.0588 14.1725 29.0513 17.6336 29.4504C18.0779 29.5018 18.5216 29.5268 18.9639 29.5268Z" fill="black"/>
</g>
<defs>
<clipPath id="clip0_1_4071">
<rect width="38" height="38" fill="white"/>
</clipPath>
</defs>
</svg>
