<svg width="24" height="24" viewBox="0 0 24 24" fill="none" xmlns="http://www.w3.org/2000/svg">
<g clip-path="url(#clip0_34_442)">
<path d="M23.2967 24H0.70312C0.31481 24 0 23.6852 0 23.2969C0 22.9086 0.31481 22.5938 0.70312 22.5938H23.2967C23.685 22.5938 23.9998 22.9086 23.9998 23.2969C23.9998 23.6852 23.685 24 23.2967 24Z" fill="#9DB2CE"/>
<path d="M4.96872 24H2.15624C1.76794 24 1.45312 23.6852 1.45312 23.2969V18.1407C1.45312 17.4945 1.97882 16.9688 2.62499 16.9688H4.49998C5.14614 16.9688 5.67184 17.4945 5.67184 18.1407V23.2969C5.67184 23.6852 5.35703 24 4.96872 24ZM2.85936 22.5938H4.2656V18.3751H2.85936V22.5938Z" fill="#9DB2CE"/>
<path d="M10.5937 24H7.78124C7.39294 24 7.07812 23.6852 7.07812 23.2969V16.4532C7.07812 15.807 7.60382 15.2813 8.24999 15.2813H10.125C10.7711 15.2813 11.2968 15.807 11.2968 16.4532V23.2969C11.2968 23.6852 10.982 24 10.5937 24ZM8.48436 22.5938H9.8906V16.6876H8.48436V22.5938Z" fill="#9DB2CE"/>
<path d="M16.2187 24H13.4062C13.0179 24 12.7031 23.6852 12.7031 23.2969V13.8751C12.7031 13.2289 13.2288 12.7032 13.875 12.7032H15.75C16.3961 12.7032 16.9218 13.2289 16.9218 13.8751V23.2969C16.9218 23.6852 16.607 24 16.2187 24ZM14.1094 22.5937H15.5156V14.1094H14.1094V22.5937Z" fill="#9DB2CE"/>
<path d="M21.8437 24H19.0312C18.6429 24 18.3281 23.6852 18.3281 23.2969V9.18761C18.3281 8.54145 18.8538 8.01575 19.5 8.01575H21.375C22.0211 8.01575 22.5468 8.54145 22.5468 9.18761V23.2969C22.5468 23.6852 22.232 24 21.8437 24ZM19.7344 22.5938H21.1406V9.42199H19.7344V22.5938Z" fill="#9DB2CE"/>
<path d="M0.70312 15.1081C0.31481 15.1081 0 14.7933 0 14.405C0 14.0167 0.31481 13.7019 0.70312 13.7019C4.83774 13.7019 9.33949 12.1962 13.379 9.46237C17.0953 6.94731 20.0565 3.65015 21.5035 0.416317C21.6621 0.0618514 22.078 -0.0969599 22.4324 0.0617108C22.7869 0.220288 22.9457 0.636206 22.787 0.990672C21.2361 4.45691 18.0943 7.96923 14.1672 10.627C9.89744 13.5167 5.11576 15.1081 0.70312 15.1081Z" fill="#9DB2CE"/>
<path d="M23.2962 5.70363C22.9857 5.70363 22.7017 5.49645 22.6175 5.18229L21.6481 1.56446L18.0303 2.53387C17.6551 2.63447 17.2697 2.41181 17.1692 2.03672C17.0687 1.66163 17.2912 1.27609 17.6663 1.17559L21.9633 0.0242067C22.3385 -0.0763394 22.7239 0.146315 22.8244 0.521359L23.9758 4.81836C24.0763 5.19345 23.8538 5.57899 23.4787 5.67949C23.4177 5.6958 23.3565 5.70363 23.2962 5.70363Z" fill="#9DB2CE"/>
</g>
<defs>
<clipPath id="clip0_34_442">
<rect width="24" height="24" fill="white"/>
</clipPath>
</defs>
</svg>
