<svg width="24" height="24" viewBox="0 0 24 24" fill="none" xmlns="http://www.w3.org/2000/svg">
<g clip-path="url(#clip0_34_186)">
<path d="M23.2966 22.5937H22.5466V8.71892C22.5466 8.33062 22.2318 8.01581 21.8435 8.01581H19.031C18.6427 8.01581 18.3279 8.33062 18.3279 8.71892V22.5937H16.9216V13.4064C16.9216 13.0181 16.6068 12.7032 16.2185 12.7032H13.4061C13.0178 12.7032 12.703 13.0181 12.703 13.4064V22.5937H11.2967V15.9844C11.2967 15.5961 10.9819 15.2813 10.5936 15.2813H7.78114C7.39284 15.2813 7.07803 15.5961 7.07803 15.9844V22.5937H5.6718V17.6719C5.6718 17.2836 5.35699 16.9688 4.96868 16.9688H2.15622C1.76791 16.9688 1.45311 17.2836 1.45311 17.6719V22.5937H0.703115C0.314808 22.5937 0 22.9085 0 23.2968C0 23.6852 0.314808 24 0.703115 24H23.2966C23.6849 24 23.9997 23.6852 23.9997 23.2968C23.9997 22.9085 23.6849 22.5937 23.2966 22.5937Z" fill="#00AAFF"/>
<path d="M0.703115 15.1081C5.0914 15.1081 9.85018 13.5321 14.1029 10.6703C17.4336 8.42903 20.21 5.5658 21.9346 2.63395L22.6174 5.18237C22.7016 5.49652 23.1081 5.76792 23.4786 5.67952C23.8563 5.58943 24.0762 5.19348 23.9757 4.81839L22.8243 0.521417C22.7238 0.146375 22.3384 -0.0762779 21.9632 0.0242676L17.6662 1.17564C17.2912 1.27614 17.0686 1.66168 17.1691 2.03677C17.2696 2.41186 17.655 2.63451 18.0302 2.53392L20.7984 1.79218C19.1894 4.58805 16.5303 7.34182 13.3178 9.50362C9.29467 12.2109 4.8147 13.7018 0.703115 13.7018C0.314808 13.7018 0 14.0166 0 14.4049C0 14.7933 0.314808 15.1081 0.703115 15.1081Z" fill="#00AAFF"/>
</g>
<defs>
<clipPath id="clip0_34_186">
<rect width="24" height="24" fill="white"/>
</clipPath>
</defs>
</svg>
