<svg width="32" height="44" viewBox="0 0 32 44" fill="none" xmlns="http://www.w3.org/2000/svg">
<path d="M16.0001 0C7.21339 0 0.0649414 7.14845 0.0649414 15.935C0.0649414 26.8395 14.3253 42.8478 14.9325 43.524C15.5028 44.1592 16.4984 44.158 17.0677 43.524C17.6748 42.8478 31.9352 26.8395 31.9352 15.935C31.935 7.14845 24.7867 0 16.0001 0ZM16.0001 23.9524C11.5793 23.9524 7.98279 20.3558 7.98279 15.935C7.98279 11.5142 11.5794 7.91777 16.0001 7.91777C20.4208 7.91777 24.0173 11.5143 24.0173 15.9351C24.0173 20.3559 20.4208 23.9524 16.0001 23.9524Z" fill="#030303"/>
</svg>
