<svg width="24" height="24" viewBox="0 0 24 24" fill="none" xmlns="http://www.w3.org/2000/svg">
<g clip-path="url(#clip0_34_426)">
<path d="M12 23.5C18.3513 23.5 23.5 18.3513 23.5 12C23.5 5.64873 18.3513 0.5 12 0.5C5.64873 0.5 0.5 5.64873 0.5 12C0.5 18.3513 5.64873 23.5 12 23.5Z" fill="#00AAFF"/>
<path d="M12 19.5C8.416 19.5 5.5 17.0325 5.5 14H6.5C6.5 16.481 8.9675 18.5 12 18.5C15.0325 18.5 17.5 16.481 17.5 14H18.5C18.5 17.0325 15.584 19.5 12 19.5ZM10 10.5H9C9 9.397 8.327 8.5 7.5 8.5C6.673 8.5 6 9.397 6 10.5H5C5 8.8455 6.1215 7.5 7.5 7.5C8.8785 7.5 10 8.8455 10 10.5ZM19 10.5H18C18 9.397 17.327 8.5 16.5 8.5C15.673 8.5 15 9.397 15 10.5H14C14 8.8455 15.1215 7.5 16.5 7.5C17.8785 7.5 19 8.8455 19 10.5Z" fill="white"/>
<path d="M12.0002 2.00003C18.0752 2.00003 23.0002 6.25353 23.0002 11.5H23.4877C23.3499 8.54606 22.0794 5.75871 19.9401 3.71698C17.8009 1.67525 14.9574 0.536072 12.0002 0.536072C9.04301 0.536072 6.19948 1.67525 4.06025 3.71698C1.92102 5.75871 0.650537 8.54606 0.512695 11.5H1.0002C1.0002 6.25353 5.9252 2.00003 12.0002 2.00003Z" fill="#00AAFF"/>
<path d="M23 11.5C23 16.7465 18.075 21 12 21C5.925 21 1 16.7465 1 11.5H0.5125C0.5055 11.666 0.5 11.8325 0.5 12C0.5 15.05 1.7116 17.9751 3.86827 20.1317C6.02494 22.2884 8.95001 23.5 12 23.5C15.05 23.5 17.9751 22.2884 20.1317 20.1317C22.2884 17.9751 23.5 15.05 23.5 12C23.5 11.8325 23.4945 11.666 23.4875 11.5H23Z" fill="#00AAFF"/>
</g>
<defs>
<clipPath id="clip0_34_426">
<rect width="24" height="24" fill="white"/>
</clipPath>
</defs>
</svg>
