<svg width="24" height="24" viewBox="0 0 24 24" fill="none" xmlns="http://www.w3.org/2000/svg">
<path d="M12 24C9.62663 24 7.30655 23.2962 5.33316 21.9776C3.35977 20.6591 1.8217 18.7849 0.913451 16.5922C0.00519943 14.3995 -0.232441 11.9867 0.230582 9.65892C0.693605 7.33115 1.83649 5.19295 3.51472 3.51472C5.19295 1.83649 7.33115 0.693605 9.65892 0.230582C11.9867 -0.232441 14.3995 0.00519943 16.5922 0.913451C18.7849 1.8217 20.6591 3.35977 21.9776 5.33316C23.2962 7.30655 24 9.62663 24 12C23.9963 15.1815 22.7308 18.2316 20.4812 20.4812C18.2316 22.7308 15.1815 23.9963 12 24ZM12 1.00001C9.82441 1.00001 7.69767 1.64514 5.88873 2.85384C4.07979 4.06254 2.66989 5.7805 1.83733 7.79049C1.00477 9.80047 0.78693 12.0122 1.21137 14.146C1.6358 16.2798 2.68345 18.2398 4.22183 19.7782C5.76021 21.3166 7.72022 22.3642 9.85401 22.7886C11.9878 23.2131 14.1995 22.9952 16.2095 22.1627C18.2195 21.3301 19.9375 19.9202 21.1462 18.1113C22.3549 16.3023 23 14.1756 23 12C22.9967 9.08364 21.8367 6.28767 19.7745 4.22548C17.7123 2.1633 14.9164 1.00331 12 1.00001Z" fill="#9DB2CE"/>
<path d="M12 19.5C8.416 19.5 5.5 17.0325 5.5 14H6.5C6.5 16.481 8.9675 18.5 12 18.5C15.0325 18.5 17.5 16.481 17.5 14H18.5C18.5 17.0325 15.584 19.5 12 19.5Z" fill="#9DB2CE"/>
<path d="M10 10.5H9C9 9.397 8.327 8.5 7.5 8.5C6.673 8.5 6 9.397 6 10.5H5C5 8.8455 6.1215 7.5 7.5 7.5C8.8785 7.5 10 8.8455 10 10.5Z" fill="#9DB2CE"/>
<path d="M19 10.5H18C18 9.397 17.327 8.5 16.5 8.5C15.673 8.5 15 9.397 15 10.5H14C14 8.8455 15.1215 7.5 16.5 7.5C17.8785 7.5 19 8.8455 19 10.5Z" fill="#9DB2CE"/>
</svg>
