<svg width="38" height="40" viewBox="0 0 38 40" fill="none" xmlns="http://www.w3.org/2000/svg">
<g clip-path="url(#clip0_1_4080)">
<path d="M18.9998 38.3359C29.056 38.3359 37.2082 29.9367 37.2082 19.5758C37.2082 9.21484 29.056 0.815659 18.9998 0.815659C8.94365 0.815659 0.791504 9.21484 0.791504 19.5758C0.791504 29.9367 8.94365 38.3359 18.9998 38.3359Z" fill="#FFD364"/>
<path d="M26.125 17.9444C27.4367 17.9444 28.5 16.4837 28.5 14.6818C28.5 12.8799 27.4367 11.4192 26.125 11.4192C24.8133 11.4192 23.75 12.8799 23.75 14.6818C23.75 16.4837 24.8133 17.9444 26.125 17.9444Z" fill="#030303"/>
<path d="M11.875 17.9444C13.1867 17.9444 14.25 16.4837 14.25 14.6818C14.25 12.8799 13.1867 11.4192 11.875 11.4192C10.5633 11.4192 9.5 12.8799 9.5 14.6818C9.5 16.4837 10.5633 17.9444 11.875 17.9444Z" fill="#030303"/>
<path d="M26.1248 17.1288C26.9993 17.1288 27.7082 16.0332 27.7082 14.6818C27.7082 13.3304 26.9993 12.2348 26.1248 12.2348C25.2504 12.2348 24.5415 13.3304 24.5415 14.6818C24.5415 16.0332 25.2504 17.1288 26.1248 17.1288Z" fill="#030303"/>
<path d="M11.8748 17.1288C12.7493 17.1288 13.4582 16.0332 13.4582 14.6818C13.4582 13.3304 12.7493 12.2348 11.8748 12.2348C11.0004 12.2348 10.2915 13.3304 10.2915 14.6818C10.2915 16.0332 11.0004 17.1288 11.8748 17.1288Z" fill="#030303"/>
<path d="M26.9167 14.6818C27.3539 14.6818 27.7083 14.3166 27.7083 13.8662C27.7083 13.4157 27.3539 13.0505 26.9167 13.0505C26.4794 13.0505 26.125 13.4157 26.125 13.8662C26.125 14.3166 26.4794 14.6818 26.9167 14.6818Z" fill="#F6FAFD"/>
<path d="M12.6667 14.6818C13.1039 14.6818 13.4583 14.3166 13.4583 13.8662C13.4583 13.4157 13.1039 13.0505 12.6667 13.0505C12.2294 13.0505 11.875 13.4157 11.875 13.8662C11.875 14.3166 12.2294 14.6818 12.6667 14.6818Z" fill="#F6FAFD"/>
<path d="M19.0001 3.26262C28.6188 3.26262 36.4167 10.2014 36.4167 18.7601H37.1886C36.9704 13.9412 34.9588 9.39421 31.5716 6.06351C28.1845 2.73281 23.6823 0.874451 19.0001 0.874451C14.3179 0.874451 9.81559 2.73281 6.42848 6.06351C3.04137 9.39421 1.02977 13.9412 0.811523 18.7601H1.5834C1.5834 10.2014 9.38132 3.26262 19.0001 3.26262Z" fill="#FFEB95"/>
<path d="M36.4165 18.7601C36.4165 27.3188 28.6186 34.2576 18.9998 34.2576C9.38109 34.2576 1.58317 27.3188 1.58317 18.7601H0.811296C0.800212 19.0309 0.791504 19.3025 0.791504 19.5758C0.791504 24.5512 2.70988 29.323 6.1246 32.8412C9.53933 36.3594 14.1707 38.3359 18.9998 38.3359C23.829 38.3359 28.4603 36.3594 31.8751 32.8412C35.2898 29.323 37.2082 24.5512 37.2082 19.5758C37.2082 19.3025 37.1995 19.0309 37.1884 18.7601H36.4165Z" fill="#FFB839"/>
<path d="M12.6665 26.101H25.3332V27.7323H12.6665V26.101Z" fill="#030303"/>
<path d="M29.9361 8.01447C30.1911 7.75168 30.1102 7.24221 29.7553 6.87653C29.4003 6.51085 28.9059 6.42745 28.6508 6.69024C28.3957 6.95303 28.4767 7.4625 28.8316 7.82818C29.1865 8.19385 29.681 8.27726 29.9361 8.01447Z" fill="#F6FAFD"/>
<path d="M24.6634 4.01056C24.7911 3.879 24.7507 3.62414 24.5733 3.4413C24.3958 3.25846 24.1484 3.21688 24.0207 3.34844C23.8931 3.47999 23.9334 3.73486 24.1109 3.9177C24.2883 4.10054 24.5357 4.14211 24.6634 4.01056Z" fill="#F6FAFD"/>
<path d="M28.2043 7.04506C28.7145 6.51948 28.5523 5.50028 27.8421 4.7686C27.132 4.03693 26.1428 3.86986 25.6326 4.39544C25.1225 4.92102 25.2847 5.94023 25.9948 6.6719C26.705 7.40357 27.6942 7.57064 28.2043 7.04506Z" fill="#F6FAFD"/>
<path d="M19 39.1515C15.2422 39.1515 11.5687 38.0034 8.44417 35.8524C5.31964 33.7014 2.88436 30.6441 1.4463 27.0671C0.00823243 23.4901 -0.368031 19.5541 0.365088 15.7567C1.09821 11.9594 2.90778 8.47133 5.56498 5.73362C8.22218 2.9959 11.6077 1.13149 15.2933 0.376151C18.9789 -0.379183 22.7992 0.0084819 26.271 1.49012C29.7428 2.97177 32.7102 5.48084 34.7979 8.70006C36.8857 11.9193 38 15.704 38 19.5758C37.9941 24.7657 35.9905 29.7414 32.4286 33.4112C28.8666 37.0811 24.0373 39.1455 19 39.1515ZM19 1.63132C15.5553 1.63132 12.188 2.68375 9.32383 4.65551C6.45967 6.62727 4.22733 9.42981 2.90911 12.7087C1.59088 15.9876 1.24597 19.5957 1.918 23.0766C2.59002 26.5574 4.2488 29.7548 6.68457 32.2644C9.12033 34.774 12.2237 36.483 15.6022 37.1754C18.9807 37.8678 22.4826 37.5124 25.6651 36.1543C28.8476 34.7961 31.5677 32.4961 33.4814 29.5452C35.3952 26.5942 36.4167 23.1248 36.4167 19.5758C36.4114 14.8183 34.5748 10.2572 31.3097 6.89309C28.0445 3.52902 23.6176 1.63672 19 1.63132Z" fill="#030303"/>
<path d="M26.125 17.9444C24.7926 17.9444 23.75 16.5113 23.75 14.6818C23.75 12.8523 24.7926 11.4192 26.125 11.4192C27.4574 11.4192 28.5 12.8523 28.5 14.6818C28.5 16.5113 27.4574 17.9444 26.125 17.9444ZM26.125 13.0505C25.802 13.0505 25.3333 13.6859 25.3333 14.6818C25.3333 15.6777 25.802 16.3131 26.125 16.3131C26.448 16.3131 26.9167 15.6777 26.9167 14.6818C26.9167 13.6859 26.448 13.0505 26.125 13.0505Z" fill="#030303"/>
<path d="M11.875 17.9444C10.5426 17.9444 9.5 16.5113 9.5 14.6818C9.5 12.8523 10.5426 11.4192 11.875 11.4192C13.2074 11.4192 14.25 12.8523 14.25 14.6818C14.25 16.5113 13.2074 17.9444 11.875 17.9444ZM11.875 13.0505C11.552 13.0505 11.0833 13.6859 11.0833 14.6818C11.0833 15.6777 11.552 16.3131 11.875 16.3131C12.198 16.3131 12.6667 15.6777 12.6667 14.6818C12.6667 13.6859 12.198 13.0505 11.875 13.0505Z" fill="#030303"/>
<path d="M12.6665 26.101H25.3332V27.7323H12.6665V26.101Z" fill="#030303"/>
</g>
<defs>
<clipPath id="clip0_1_4080">
<rect width="38" height="39.1515" fill="white"/>
</clipPath>
</defs>
</svg>
