<svg width="17" height="23" viewBox="0 0 17 23" fill="none" xmlns="http://www.w3.org/2000/svg">
<path d="M14.0195 8.83441H13.3529V6.04846C13.3529 2.97556 10.9609 0.476562 8.01953 0.476562C5.0782 0.476562 2.6862 2.97556 2.6862 6.04846V8.83441H2.01953C0.917309 8.83441 0.0195312 9.77142 0.0195312 10.9239V20.6747C0.0195312 21.8271 0.917309 22.7642 2.01953 22.7642H14.0195C15.1218 22.7642 16.0195 21.8271 16.0195 20.6747V10.9239C16.0195 9.77142 15.1218 8.83441 14.0195 8.83441ZM4.46398 6.04846C4.46398 3.99986 6.05864 2.33386 8.01953 2.33386C9.98042 2.33386 11.5751 3.99986 11.5751 6.04846V8.83441H4.46398V6.04846ZM8.90842 16.0054V18.1209C8.90842 18.6335 8.51109 19.0496 8.01953 19.0496C7.52798 19.0496 7.13064 18.6335 7.13064 18.1209V16.0054C6.60175 15.6832 6.24175 15.0907 6.24175 14.4063C6.24175 13.382 7.03909 12.549 8.01953 12.549C8.99998 12.549 9.79731 13.382 9.79731 14.4063C9.79731 15.0907 9.43731 15.6832 8.90842 16.0054Z" fill="#875692"/>
</svg>
