<svg width="44" height="44" viewBox="0 0 44 44" fill="none" xmlns="http://www.w3.org/2000/svg">
<path fill-rule="evenodd" clip-rule="evenodd" d="M20.4379 33.3923C14.6968 39.0564 8.6624 42.0704 8.6624 42.0704C8.2444 42.2785 7.73656 42.1392 7.48265 41.7468C7.22965 41.3545 7.31215 40.8347 7.67423 40.5396C9.96956 38.6686 15.7922 30.7065 18.0381 24.8325C18.4964 23.6344 18.8044 22.5289 18.8814 21.5893C18.9419 20.8578 18.8832 20.2455 18.5432 19.8339C18.2086 19.4297 17.7576 19.3462 17.2571 19.4388C16.7832 19.5259 16.2753 19.7487 15.7492 20.0521C12.2108 22.088 8.06382 27.5953 8.06382 27.5953C7.78973 27.9574 7.29016 28.0637 6.89141 27.8446C6.49266 27.6256 6.31574 27.1471 6.47432 26.7209C10.3188 16.4276 14.9874 12.562 18.9511 11.5445C23.143 10.4683 26.6978 12.4987 28.2222 14.0177C29.6321 15.422 30.7092 15.8703 31.6038 15.642C32.4087 15.4367 32.9779 14.7244 33.4142 13.992C34.1796 12.705 34.5014 11.2594 34.5014 11.2594C34.5967 10.8304 34.9827 10.5288 35.4227 10.5417C35.8617 10.5545 36.2302 10.8781 36.3008 11.3117C37.3128 17.5624 36.0038 20.3857 34.3282 21.571C33.2199 22.3557 31.8862 22.5024 30.6771 22.3621C29.8521 22.2668 29.094 22.0403 28.5385 21.835C27.8464 23.4823 27.0132 25.036 26.0837 26.4935C27.7437 27.0224 29.1242 27.8061 30.0959 29.0216C31.8422 31.2079 32.3289 34.9213 30.2912 41.5204C30.1683 41.9173 29.7943 42.1823 29.3781 42.1658C28.9629 42.1493 28.6109 41.855 28.5211 41.4499C28.0481 39.3305 27.5815 37.6484 26.9912 36.3568C26.4705 35.2156 25.8664 34.4016 25.0359 33.9029C23.9304 33.2383 22.4692 33.1329 20.4379 33.3923ZM25.0121 28.0876C24.1614 29.2756 23.2539 30.393 22.318 31.438C23.8204 31.4518 25.0075 31.7469 25.9801 32.3309C27.5164 33.2539 28.555 34.9543 29.4157 37.6511C30.1848 33.9579 29.8521 31.6534 28.6632 30.1657C27.8088 29.0959 26.5282 28.4973 25.0121 28.0876ZM26.5832 1.83334C29.1132 1.83334 31.1666 3.88667 31.1666 6.41667C31.1666 8.94667 29.1132 11 26.5832 11C24.0532 11 21.9999 8.94667 21.9999 6.41667C21.9999 3.88667 24.0532 1.83334 26.5832 1.83334Z" fill="#030303"/>
</svg>
