<svg width="38" height="38" viewBox="0 0 38 38" fill="none" xmlns="http://www.w3.org/2000/svg">
<g opacity="0.6" clip-path="url(#clip0_1_4100)">
<path d="M34.7904 15.9189C34.7904 14.4638 34.6154 13.0498 34.2888 11.6952C33.3556 9.74995 32.0614 8.00963 30.4941 6.56048C27.6196 4.84327 24.2335 3.90737 20.6383 4.03858C10.7186 4.4001 2.97046 12.7348 3.33198 22.6543C3.385 24.1055 3.61056 25.5094 3.98505 26.8489C4.79423 28.3907 5.83334 29.7937 7.0577 31.011C9.8682 32.8326 13.2187 33.8918 16.8175 33.8918C26.7435 33.8918 34.7904 25.845 34.7904 15.9189ZM25.3763 12.7094C26.5106 12.7094 27.4303 13.6291 27.4303 14.7635C27.4303 15.8978 26.5106 16.8175 25.3763 16.8175C24.2419 16.8175 23.3222 15.8978 23.3222 14.7635C23.3222 13.6291 24.2419 12.7094 25.3763 12.7094ZM12.6666 12.7094C13.801 12.7094 14.7207 13.6291 14.7207 14.7635C14.7207 15.8978 13.801 16.8175 12.6666 16.8175C11.5323 16.8175 10.6125 15.8978 10.6125 14.7635C10.6125 13.6291 11.5323 12.7094 12.6666 12.7094ZM11.2921 27.6526L9.67023 26.3919C12.4228 22.8513 17.0382 21.1569 21.4282 22.0743C24.1578 22.6452 26.6087 24.1786 28.3294 26.3919L26.7078 27.6526C25.2856 25.8233 23.2612 24.5563 21.0077 24.085C17.3802 23.3263 13.5664 24.7269 11.2921 27.6526Z" fill="#FFCE00"/>
<path d="M34.2888 11.6952C34.6154 13.05 34.7904 14.4638 34.7904 15.9189C34.7904 25.845 26.7436 33.8918 16.8175 33.8918C13.2187 33.8918 9.86811 32.8326 7.05762 31.011C10.1233 34.0592 14.3452 35.9459 18.9999 35.9459C28.3439 35.9459 35.9458 28.344 35.9458 19C35.9458 16.3859 35.3504 13.9083 34.2888 11.6952Z" fill="#FFB100"/>
<path d="M20.6385 4.03845C24.2339 3.90737 27.6199 4.84314 30.4944 6.56035C27.4715 3.76513 23.4322 2.05408 19.0001 2.05408C9.6561 2.05408 2.0542 9.65598 2.0542 19C2.0542 21.8306 2.75284 24.501 3.98529 26.8489C3.61081 25.5094 3.38524 24.1055 3.33222 22.6543C2.9707 12.7348 10.7188 4.4001 20.6385 4.03845Z" fill="#FFE454"/>
<path d="M19 0C8.52341 0 0 8.52341 0 19C0 29.4766 8.52341 38 19 38C29.4766 38 38 29.4766 38 19C38 8.52341 29.4766 0 19 0ZM19 35.9459C14.3453 35.9459 10.1234 34.0592 7.0577 31.011C5.83346 29.7937 4.79423 28.3907 3.98505 26.8489C2.75273 24.501 2.05408 21.8307 2.05408 19C2.05408 9.65598 9.65598 2.05408 19 2.05408C23.4321 2.05408 27.4714 3.76513 30.4943 6.56048C32.0615 8.00963 33.3557 9.74996 34.2889 11.6952C35.3506 13.9083 35.9459 16.3859 35.9459 19C35.9459 28.344 28.344 35.9459 19 35.9459Z" fill="black"/>
<path d="M21.0079 24.085C23.2615 24.5563 25.2858 25.8233 26.708 27.6526L28.3296 26.3919C26.609 24.1786 24.158 22.6452 21.4284 22.0743C17.0384 21.1569 12.423 22.8513 9.67041 26.3919L11.2922 27.6526C13.5666 24.7269 17.3804 23.3263 21.0079 24.085Z" fill="black"/>
<path d="M12.6669 16.8175C13.8013 16.8175 14.721 15.8979 14.721 14.7635C14.721 13.629 13.8013 12.7094 12.6669 12.7094C11.5324 12.7094 10.6128 13.629 10.6128 14.7635C10.6128 15.8979 11.5324 16.8175 12.6669 16.8175Z" fill="black"/>
<path d="M25.3763 16.8175C26.5108 16.8175 27.4304 15.8979 27.4304 14.7635C27.4304 13.629 26.5108 12.7094 25.3763 12.7094C24.2419 12.7094 23.3223 13.629 23.3223 14.7635C23.3223 15.8979 24.2419 16.8175 25.3763 16.8175Z" fill="black"/>
</g>
<defs>
<clipPath id="clip0_1_4100">
<rect width="38" height="38" fill="white"/>
</clipPath>
</defs>
</svg>
