<svg width="38" height="38" viewBox="0 0 38 38" fill="none" xmlns="http://www.w3.org/2000/svg">
<path d="M19 1.1875C9.20312 1.1875 1.1875 9.20312 1.1875 19C1.1875 28.7969 9.20312 36.8125 19 36.8125C28.7969 36.8125 36.8125 28.7969 36.8125 19C36.8125 9.20312 28.7969 1.1875 19 1.1875Z" fill="#FFCE00"/>
<path d="M28.5 17.8125H9.5C8.84688 17.8125 8.3125 18.3469 8.3125 19C8.3125 24.8781 13.1219 29.6875 19 29.6875C24.8781 29.6875 29.6875 24.8781 29.6875 19C29.6875 18.3469 29.1531 17.8125 28.5 17.8125Z" fill="#F9F9F9"/>
<path d="M28.5 17.8125H9.5C8.84688 17.8125 8.3125 18.3469 8.3125 19C8.3125 24.8781 13.1219 29.6875 19 29.6875C24.8781 29.6875 29.6875 24.8781 29.6875 19C29.6875 18.3469 29.1531 17.8125 28.5 17.8125ZM19 27.3125C14.8438 27.3125 11.3406 24.225 10.7469 20.1875H27.1938C26.6594 24.225 23.1562 27.3125 19 27.3125Z" fill="#030303"/>
<path d="M21.375 14.25C22.0281 14.25 22.5625 13.7156 22.5625 13.0625C22.5625 12.4094 23.0969 11.875 23.75 11.875C24.4031 11.875 24.9375 12.4094 24.9375 13.0625C24.9375 13.7156 25.4719 14.25 26.125 14.25C26.7781 14.25 27.3125 13.7156 27.3125 13.0625C27.3125 11.1031 25.7094 9.5 23.75 9.5C21.7906 9.5 20.1875 11.1031 20.1875 13.0625C20.1875 13.7156 20.7219 14.25 21.375 14.25Z" fill="#030303"/>
<path d="M11.875 14.25C12.5281 14.25 13.0625 13.7156 13.0625 13.0625C13.0625 12.4094 13.5969 11.875 14.25 11.875C14.9031 11.875 15.4375 12.4094 15.4375 13.0625C15.4375 13.7156 15.9719 14.25 16.625 14.25C17.2781 14.25 17.8125 13.7156 17.8125 13.0625C17.8125 11.1031 16.2094 9.5 14.25 9.5C12.2906 9.5 10.6875 11.1031 10.6875 13.0625C10.6875 13.7156 11.2219 14.25 11.875 14.25Z" fill="#030303"/>
<path d="M19 1.1875C16.3875 1.1875 13.8344 1.78125 11.5781 2.79063C13.1812 2.31562 14.8438 2.07813 16.625 2.07813C26.4219 2.07813 34.4375 10.0938 34.4375 19.8906C34.4375 27.075 30.1625 33.25 24.0469 36.1C31.4094 33.9031 36.8125 27.075 36.8125 19C36.8125 9.20313 28.7969 1.1875 19 1.1875Z" fill="#EDBF00"/>
<path d="M19 36.8125C9.20312 36.8125 1.1875 28.7969 1.1875 19C1.1875 9.20312 9.20312 1.1875 19 1.1875C28.7969 1.1875 36.8125 9.20312 36.8125 19C36.8125 28.7969 28.7969 36.8125 19 36.8125ZM19 3.5625C10.5094 3.5625 3.5625 10.5094 3.5625 19C3.5625 27.4906 10.5094 34.4375 19 34.4375C27.4906 34.4375 34.4375 27.4906 34.4375 19C34.4375 10.5094 27.4906 3.5625 19 3.5625Z" fill="#030303"/>
</svg>
