<svg width="44" height="44" viewBox="0 0 44 44" fill="none" xmlns="http://www.w3.org/2000/svg">
<path d="M24.7201 21.0387C27.8324 20.6479 30.9014 21.9005 32.8696 24.325C33.0141 24.503 33.2719 24.5419 33.457 24.4068C34.3486 23.7553 35.1162 22.9414 35.7181 22.0018C39.4691 16.1494 35.3037 8.25 28.1874 8.25C23.5437 8.25 19.7162 11.8088 19.2902 16.3425C19.273 16.5256 19.3742 16.7005 19.5425 16.7748C21.4851 17.634 23.1447 19.0497 24.3105 20.8495C24.3989 20.986 24.5588 21.0589 24.7201 21.0387Z" fill="#030303"/>
<path d="M28.1875 6.875C28.9469 6.875 29.5625 6.25934 29.5625 5.5V2.75C29.5625 1.99066 28.9469 1.375 28.1875 1.375C27.4281 1.375 26.8125 1.99066 26.8125 2.75V5.5C26.8125 6.25934 27.4281 6.875 28.1875 6.875Z" fill="#030303"/>
<path d="M42.625 15.8125H39.875C39.1156 15.8125 38.5 16.4282 38.5 17.1875C38.5 17.9468 39.1156 18.5625 39.875 18.5625H42.625C43.3844 18.5625 44 17.9468 44 17.1875C44 16.4282 43.3844 15.8125 42.625 15.8125Z" fill="#030303"/>
<path d="M37.4242 24.4795C36.8873 23.9426 36.0167 23.9426 35.4797 24.4795C34.9426 25.0166 34.9426 25.8871 35.4797 26.4241L37.4242 28.3686C37.6926 28.6371 38.0445 28.7714 38.3964 28.7714C39.6105 28.7714 40.2373 27.2926 39.3686 26.4241L37.4242 24.4795Z" fill="#030303"/>
<path d="M18.951 9.89545C19.488 10.4325 20.3585 10.4325 20.8955 9.89545C21.4326 9.35843 21.4326 8.48788 20.8955 7.95094L18.951 6.00643C18.4143 5.46949 17.5436 5.46949 17.0065 6.00643C16.4695 6.54346 16.4695 7.414 17.0065 7.95094L18.951 9.89545Z" fill="#030303"/>
<path d="M36.4517 10.2981C36.8037 10.2981 37.1555 10.1639 37.4239 9.89536L39.3685 7.95085C39.9055 7.41383 39.9055 6.54328 39.3685 6.00634C38.8315 5.46941 37.9609 5.46932 37.4239 6.00634L35.4795 7.95094C34.6107 8.81968 35.2378 10.2981 36.4517 10.2981Z" fill="#030303"/>
<path d="M32.0143 31.2812C33.0743 26.0585 27.6048 22.0318 22.9664 24.4119C21.9469 21.0475 18.8222 18.5983 15.125 18.5983C10.3268 18.5983 6.53864 22.7078 6.96523 27.5235C3.0678 27.8279 0 31.0869 0 35.0625C0 39.2275 3.37434 42.625 7.5625 42.625H32.1406C35.2731 42.625 37.8125 40.0856 37.8125 36.9531C37.8125 33.9592 35.4567 31.2812 32.0143 31.2812Z" fill="#030303"/>
</svg>
